# File created by Blade
# Date/Time:  Thu Jan 22 19:13:21 2015
#---------------------------------------------------------
:version 1.10
:name HOM
:units
  mass 1.0
  length 1.000000
  angle deg
:documentation
     Acclaim Skeleton File
:root
   axis xyz
   order TX TY TZ RX RY RZ
   position 0.000000 0.000000 0.000000
   orientation 0 0 0
:bonedata
   begin
      id 1
      name RightUpLeg_dum
      direction -1.000000 0.000000 0.000000
      length 4.478084
      axis 0.0 0.0 0.0 xyz
   end
   begin
      id 2
      name LeftUpLeg_dum
      direction 1.000000 0.000000 0.000000
      length 4.478084
      axis 0.0 0.0 0.0 xyz
   end
   begin
      id 3
      name Spine_dum
      direction 0.000000 1.000000 0.000000
      length 6.068208
      axis 0.0 0.0 0.0 xyz
   end
   begin
      id 4
      name RightUpLeg
      direction 0.000000 -1.000000 0.000000
      length 16.405774
      axis 0.0 0.0 0.0 xyz
      dof rx ry rz
   end
   begin
      id 5
      name RightLeg
      direction 0.000000 -1.000000 0.000000
      length 14.644143
      axis 0.0 0.0 0.0 xyz
      dof rx ry rz
   end
   begin
      id 6
      name RightFoot
      direction 0.000000 -0.258819 0.965926
      length 5.806150
      axis 15.0 0.0 0.0 xyz
      dof rx ry rz
   end
   begin
      id 7
      name RightToeBase
      direction 0.000000 0.000000 1.000000
      length 2.952750
      axis 0.0 0.0 0.0 xyz
      dof rx ry rz
   end
   begin
      id 8
      name LeftUpLeg
      direction 0.000000 -1.000000 0.000000
      length 16.405774
      axis 0.0 0.0 0.0 xyz
      dof rx ry rz
   end
   begin
      id 9
      name LeftLeg
      direction 0.000000 -1.000000 0.000000
      length 14.644143
      axis 0.0 0.0 0.0 xyz
      dof rx ry rz
   end
   begin
      id 10
      name LeftFoot
      direction 0.000000 -0.258819 0.965926
      length 5.806150
      axis 15.0 0.0 0.0 xyz
      dof rx ry rz
   end
   begin
      id 11
      name LeftToeBase
      direction 0.000000 0.000000 1.000000
      length 2.952750
      axis 0.0 0.0 0.0 xyz
      dof rx ry rz
   end
   begin
      id 12
      name Spine
      direction 0.000000 1.000000 0.000000
      length 0.000000
      axis 0.0 0.0 0.0 xyz
      dof rx ry rz
   end
   begin
      id 13
      name Spine_dum1
      direction 0.000000 1.000000 0.000000
      length 10.013923
      axis 0.0 0.0 0.0 xyz
   end
   begin
      id 14
      name Spine_dum2
      direction 0.000000 1.000000 0.000000
      length 10.013923
      axis 0.0 0.0 0.0 xyz
   end
   begin
      id 15
      name Spine_dum3
      direction 0.000000 1.000000 0.000000
      length 15.777476
      axis 0.0 0.0 0.0 xyz
   end
   begin
      id 16
      name RightShoulder
      direction -1.000000 0.000000 0.000000
      length 7.190220
      axis 0.0 0.0 90.0 xyz
      dof rx ry rz
   end
   begin
      id 17
      name RightArm
      direction -1.000000 0.000000 0.000000
      length 10.177469
      axis 0.0 0.0 90.0 xyz
      dof rx ry rz
   end
   begin
      id 18
      name RightForeArm
      direction -1.000000 0.000000 0.000000
      length 8.392114
      axis 0.0 0.0 90.0 xyz
      dof ry rz rx
   end
   begin
      id 19
      name RightHand
      direction -1.000000 0.000000 0.000000
      length 0.000000
      axis 0.0 0.0 90.0 xyz
      dof rx ry rz
   end
   begin
      id 20
      name RightHand_dum1
      direction -1.000000 0.000000 0.000000
      length 3.937000
      axis 0.0 0.0 90.0 xyz
   end
   begin
      id 21
      name RightHand_dum2
      direction 0.000000 0.000000 0.000000
      length 0.000000
      axis 0.0 0.0 90.0 xyz
   end
   begin
      id 22
      name RightHandThumb1
      direction 0.000000 0.000000 1.000000
      length 3.937000
      axis 0.0 0.0 90.0 xyz
      dof rx rz ry
   end
   begin
      id 23
      name LeftShoulder
      direction 1.000000 0.000000 0.000000
      length 7.190220
      axis 0.0 0.0 -90.0 xyz
      dof rx ry rz
   end
   begin
      id 24
      name LeftArm
      direction 1.000000 0.000000 0.000000
      length 10.177469
      axis 0.0 0.0 -90.0 xyz
      dof rx ry rz
   end
   begin
      id 25
      name LeftForeArm
      direction 1.000000 0.000000 0.000000
      length 8.392114
      axis 0.0 0.0 -90.0 xyz
      dof ry rz rx
   end
   begin
      id 26
      name LeftHand
      direction 1.000000 0.000000 0.000000
      length 0.000000
      axis 0.0 0.0 -90.0 xyz
      dof rx ry rz
   end
   begin
      id 27
      name LeftHand_dum1
      direction 1.000000 0.000000 0.000000
      length 3.937000
      axis 0.0 0.0 -90.0 xyz
   end
   begin
      id 28
      name LeftHand_dum2
      direction 0.000000 0.000000 0.000000
      length 0.000000
      axis 0.0 0.0 -90.0 xyz
   end
   begin
      id 29
      name LeftHandThumb1
      direction 0.000000 0.000000 1.000000
      length 3.937000
      axis 0.0 0.0 -90.0 xyz
      dof rx rz ry
   end
   begin
      id 30
      name Head
      direction 0.000000 1.000000 0.000000
      length 4.527550
      axis 0.0 0.0 0.0 xyz
      dof rx ry rz
   end
:hierarchy
   begin
      root RightUpLeg_dum LeftUpLeg_dum Spine_dum
      RightUpLeg_dum RightUpLeg
      LeftUpLeg_dum LeftUpLeg
      Spine_dum Spine
      RightUpLeg RightLeg
      RightLeg RightFoot
      RightFoot RightToeBase
      LeftUpLeg LeftLeg
      LeftLeg LeftFoot
      LeftFoot LeftToeBase
      Spine Spine_dum1 Spine_dum2 Spine_dum3
      Spine_dum1 RightShoulder
      Spine_dum2 LeftShoulder
      Spine_dum3 Head
      RightShoulder RightArm
      RightArm RightForeArm
      RightForeArm RightHand
      RightHand RightHand_dum1 RightHand_dum2
      RightHand_dum2 RightHandThumb1
      LeftShoulder LeftArm
      LeftArm LeftForeArm
      LeftForeArm LeftHand
      LeftHand LeftHand_dum1 LeftHand_dum2
      LeftHand_dum2 LeftHandThumb1
   end

# File created by Blade
# Date/Time:  Thu Jan 22 19:13:14 2015
# Frame Rate: 120.000 fps
#------------------------------------------------------
:FULLY-SPECIFIED
:DEGREES
275
root -2.022243 32.433815 -2.567052 14.231750 -16.187850 4.359550
RightUpLeg -31.038946 -37.194793 3.074421
RightLeg 20.278297 -0.000000 -0.000000
RightFoot -12.596270 -17.022941 4.630243
RightToeBase 5.132382 -0.000000 -0.000000
LeftUpLeg -11.727793 18.979780 18.210824
LeftLeg 8.615957 -0.000000 -0.000000
LeftFoot 15.137320 13.252909 -21.115277
LeftToeBase -1.561377 -0.000000 0.000000
Spine -8.282953 2.691555 3.860155
RightShoulder -13.520086 -10.847481 -29.952080
RightArm 27.895405 25.863941 40.753079
RightForeArm -9.552517 -0.000000 30.030122
RightHand 10.177066 -0.000000 10.760438
RightHandThumb1 -24.326973 -0.000000 -32.862282
LeftShoulder -24.912877 11.854101 21.154652
LeftArm 17.090770 -26.745309 -47.356147
LeftForeArm 19.395050 0.000000 9.236108
LeftHand -3.409958 -0.000000 -6.578259
LeftHandThumb1 -26.253704 0.000000 33.147579
Head 21.506248 12.587617 -11.529036
276
root -1.892194 32.394430 -2.543298 14.325968 -16.171316 4.218588
RightUpLeg -31.240767 -37.233824 3.034970
RightLeg 20.487145 -0.000000 -0.000000
RightFoot -12.563237 -16.985053 4.764382
RightToeBase 5.149075 -0.000000 -0.000000
LeftUpLeg -11.759678 18.703717 18.301642
LeftLeg 8.957813 -0.000000 -0.000000
LeftFoot 13.811520 13.677740 -23.631104
LeftToeBase -2.146945 -0.000000 0.000000
Spine -8.297021 2.741669 4.230741
RightShoulder -13.528442 -10.942548 -29.997248
RightArm 27.783000 25.942971 40.695167
RightForeArm -9.490782 -0.000000 29.940491
RightHand 10.166362 0.000000 10.866906
RightHandThumb1 -24.326973 -0.000000 -32.862282
LeftShoulder -24.910699 11.846196 21.044258
LeftArm 17.131384 -26.503321 -47.543401
LeftForeArm 19.421679 0.000000 9.368401
LeftHand -3.415780 -0.000000 -6.540444
LeftHandThumb1 -26.253704 0.000000 33.147579
Head 21.334562 12.451388 -11.757245
277
root -1.757907 32.355069 -2.519057 14.380210 -16.193155 4.065477
RightUpLeg -31.378649 -37.282590 2.982380
RightLeg 20.636512 -0.000000 -0.000000
RightFoot -12.516710 -16.903136 4.900594
RightToeBase 5.208579 -0.000000 -0.000000
LeftUpLeg -11.725225 18.657483 18.377497
LeftLeg 9.302908 -0.000000 -0.000000
LeftFoot 12.571950 13.487536 -26.382700
LeftToeBase -3.288102 -0.000000 0.000000
Spine -8.250538 2.804250 4.594461
RightShoulder -13.566815 -11.021323 -30.025392
RightArm 27.775270 26.030495 40.701798
RightForeArm -9.563577 -0.000000 29.726851
RightHand 10.320456 -0.000000 10.861198
RightHandThumb1 -24.326973 -0.000000 -32.862282
LeftShoulder -24.943867 11.850469 20.907085
LeftArm 17.220983 -26.283425 -47.700357
LeftForeArm 19.397909 -0.000000 9.425538
LeftHand -3.317600 0.000000 -6.595416
LeftHandThumb1 -26.253704 0.000000 33.147579
Head 21.155615 12.278233 -11.943870
278
root -1.616895 32.317568 -2.487645 14.396679 -16.254444 3.928063
RightUpLeg -31.460597 -37.395572 2.906046
RightLeg 20.712004 -0.000000 -0.000000
RightFoot -12.420640 -16.732311 5.003974
RightToeBase 5.213136 -0.000000 -0.000000
LeftUpLeg -11.605800 19.008477 18.359842
LeftLeg 9.563392 -0.000000 -0.000000
LeftFoot 11.367114 12.998560 -29.194755
LeftToeBase -3.490458 -0.000000 0.000000
Spine -8.195588 2.923367 4.931763
RightShoulder -13.590708 -11.053876 -30.073398
RightArm 27.687648 26.019181 40.652756
RightForeArm -9.506925 -0.000000 29.472790
RightHand 10.430371 -0.000000 10.815206
RightHandThumb1 -24.326973 -0.000000 -32.862282
LeftShoulder -24.929440 11.904247 20.750170
LeftArm 17.353538 -26.051124 -47.844708
LeftForeArm 19.527655 -0.000000 9.374988
LeftHand -3.120433 -0.000000 -6.429282
LeftHandThumb1 -26.253704 0.000000 33.147579
Head 21.018667 12.139206 -12.115696
279
root -1.469904 32.280517 -2.451121 14.400178 -16.386803 3.798694
RightUpLeg -31.509595 -37.482859 2.798866
RightLeg 20.729893 -0.000000 -0.000000
RightFoot -12.317348 -16.501646 5.203513
RightToeBase 5.237009 -0.000000 -0.000000
LeftUpLeg -11.394949 19.759696 18.246636
LeftLeg 9.714679 -0.000000 -0.000000
LeftFoot 10.387457 12.437877 -31.564725
LeftToeBase -3.516035 -0.000000 0.000000
Spine -8.137857 3.104100 5.241028
RightShoulder -13.646557 -11.113838 -30.121293
RightArm 27.683585 26.013133 40.653705
RightForeArm -9.510511 -0.000000 29.164449
RightHand 10.435348 -0.000000 10.906730
RightHandThumb1 -24.326973 -0.000000 -32.862282
LeftShoulder -24.936423 11.932914 20.634998
LeftArm 17.473135 -25.836323 -48.032012
LeftForeArm 19.580657 -0.000000 9.329231
LeftHand -2.998420 -0.000000 -6.421685
LeftHandThumb1 -26.253704 0.000000 33.147579
Head 20.899256 11.983848 -12.290152
280
root -1.317783 32.242860 -2.406633 14.355502 -16.567767 3.672335
RightUpLeg -31.477752 -37.563405 2.636374
RightLeg 20.704617 -0.000000 -0.000000
RightFoot -12.194116 -16.238506 5.395359
RightToeBase 5.323313 -0.000000 -0.000000
LeftUpLeg -11.047468 20.806663 18.116924
LeftLeg 9.680801 -0.000000 -0.000000
LeftFoot 9.641243 11.543920 -32.912483
LeftToeBase -3.709223 -0.000000 0.000000
Spine -8.043738 3.294662 5.545575
RightShoulder -13.631599 -11.148972 -30.231957
RightArm 27.624882 26.051572 40.746605
RightForeArm -9.617002 -0.000000 28.878851
RightHand 10.431226 -0.000000 10.916529
RightHandThumb1 -24.326973 -0.000000 -32.862282
LeftShoulder -24.892791 11.912100 20.543249
LeftArm 17.450093 -25.688427 -48.144712
LeftForeArm 19.754649 -0.000000 9.291414
LeftHand -2.803432 -0.000000 -6.609448
LeftHandThumb1 -26.253704 0.000000 33.147579
Head 20.769946 11.833389 -12.462018
281
root -1.157123 32.206264 -2.361234 14.327066 -16.798553 3.547901
RightUpLeg -31.473021 -37.648282 2.484475
RightLeg 20.643143 -0.000000 -0.000000
RightFoot -12.041320 -15.904858 5.639772
RightToeBase 5.347228 -0.000000 -0.000000
LeftUpLeg -10.659668 21.891974 17.971031
LeftLeg 9.518520 -0.000000 -0.000000
LeftFoot 9.008569 10.492558 -33.574333
LeftToeBase -4.164601 -0.000000 0.000000
Spine -7.975313 3.525717 5.833431
RightShoulder -13.691265 -11.094037 -30.224657
RightArm 27.605447 25.880457 40.532552
RightForeArm -9.585217 -0.000000 28.452476
RightHand 10.405188 -0.000000 10.765199
RightHandThumb1 -24.326973 -0.000000 -32.862282
LeftShoulder -24.903658 11.922502 20.463371
LeftArm 17.512022 -25.471526 -48.285690
LeftForeArm 19.805903 -0.000000 9.150004
LeftHand -2.598240 -0.000000 -6.693750
LeftHandThumb1 -26.253704 0.000000 33.147579
Head 20.680690 11.675055 -12.607500
282
root -0.992923 32.169029 -2.313420 14.320552 -17.060082 3.401537
RightUpLeg -31.474228 -37.671325 2.331602
RightLeg 20.578443 -0.000000 -0.000000
RightFoot -11.937755 -15.583389 6.017942
RightToeBase 5.407192 -0.000000 -0.000000
LeftUpLeg -10.220265 22.876834 17.903321
LeftLeg 9.279048 -0.000000 -0.000000
LeftFoot 8.496224 9.300907 -34.214957
LeftToeBase -4.022147 -0.000000 0.000000
Spine -7.940145 3.765641 6.143802
RightShoulder -13.678050 -11.004748 -30.337309
RightArm 27.548225 25.772299 40.519405
RightForeArm -9.658205 0.000000 28.037119
RightHand 10.345118 -0.000000 10.682576
RightHandThumb1 -24.326973 -0.000000 -32.862282
LeftShoulder -24.915815 11.984938 20.363426
LeftArm 17.593519 -25.363634 -48.427247
LeftForeArm 19.876503 -0.000000 8.915856
LeftHand -2.282824 -0.000000 -6.875305
LeftHandThumb1 -26.253704 0.000000 33.147579
Head 20.594207 11.589402 -12.773952
283
root -0.827443 32.130769 -2.261755 14.272693 -17.286879 3.233131
RightUpLeg -31.388393 -37.742666 2.159591
RightLeg 20.486192 -0.000000 -0.000000
RightFoot -11.902582 -15.183788 6.596737
RightToeBase 5.725754 -0.000000 -0.000000
LeftUpLeg -9.712109 23.446606 17.964717
LeftLeg 9.074108 -0.000000 -0.000000
LeftFoot 7.842273 8.222353 -34.857486
LeftToeBase -3.551574 -0.000000 0.000000
Spine -7.862415 3.930000 6.491379
RightShoulder -13.680134 -10.958329 -30.416558
RightArm 27.689275 25.747000 40.565106
RightForeArm -9.788187 -0.000000 27.450180
RightHand 10.378581 0.000000 10.964968
RightHandThumb1 -24.326973 -0.000000 -32.862282
LeftShoulder -24.991685 12.041108 20.261900
LeftArm 17.699090 -25.199757 -48.528176
LeftForeArm 19.922545 -0.000000 8.628799
LeftHand -2.123713 -0.000000 -7.061629
LeftHandThumb1 -26.253704 0.000000 33.147579
Head 20.501818 11.504930 -12.938003
284
root -0.657832 32.091598 -2.208770 14.274232 -17.535555 3.037174
RightUpLeg -31.320425 -37.727813 2.011685
RightLeg 20.347147 -0.000000 -0.000000
RightFoot -11.758763 -14.891086 6.997077
RightToeBase 6.033858 -0.000000 -0.000000
LeftUpLeg -9.205576 23.658589 18.096407
LeftLeg 8.850444 -0.000000 -0.000000
LeftFoot 7.066132 7.224486 -35.388962
LeftToeBase -3.508166 -0.000000 0.000000
Spine -7.849221 4.121905 6.870438
RightShoulder -13.644222 -10.980754 -30.483075
RightArm 27.772171 25.718420 40.510298
RightForeArm -9.785192 -0.000000 26.908469
RightHand 10.336380 -0.000000 11.243384
RightHandThumb1 -24.326973 -0.000000 -32.862282
LeftShoulder -25.030804 12.036334 20.200801
LeftArm 17.700407 -24.975453 -48.571180
LeftForeArm 19.909952 -0.000000 8.264483
LeftHand -1.828117 -0.000000 -7.212882
LeftHandThumb1 -26.253704 0.000000 33.147579
Head 20.414484 11.441248 -13.069296
285
root -0.478793 32.052925 -2.157963 14.290016 -17.760289 2.890259
RightUpLeg -31.346036 -37.798421 1.862766
RightLeg 20.256763 -0.000000 -0.000000
RightFoot -11.573172 -14.580632 7.423411
RightToeBase 6.105399 -0.000000 -0.000000
LeftUpLeg -8.811150 23.645918 18.141702
LeftLeg 8.744727 -0.000000 -0.000000
LeftFoot 6.094629 6.355828 -35.771284
LeftToeBase -3.806078 -0.000000 0.000000
Spine -7.861779 4.277925 7.210173
RightShoulder -13.606135 -10.874719 -30.575262
RightArm 27.768718 25.595328 40.381999
RightForeArm -10.114597 0.000000 26.317301
RightHand 10.506170 0.000000 10.954398
RightHandThumb1 -24.326973 -0.000000 -32.862282
LeftShoulder -25.087866 12.002679 20.162116
LeftArm 17.699114 -24.870658 -48.654038
LeftForeArm 19.935324 0.000000 7.898858
LeftHand -1.615192 -0.000000 -7.357933
LeftHandThumb1 -26.253704 0.000000 33.147579
Head 20.302670 11.367726 -13.234162
